<?xml version="1.0" encoding="UTF-8"?>
<svg width="14px" height="14px" viewBox="0 0 14 14" version="1.1" xmlns="http://www.w3.org/2000/svg" xmlns:xlink="http://www.w3.org/1999/xlink">
    <!-- Generator: Sketch 63.1 (92452) - https://sketch.com -->
    <title>icon14*14/时间</title>
    <desc>Created with Sketch.</desc>
    <g id="icon14*14/时间" stroke="none" stroke-width="1" fill="none" fill-rule="evenodd">
        <g id="服务预约" fill-rule="nonzero">
            <rect id="矩形" fill="#000000" opacity="0" x="0" y="0" width="14" height="14"></rect>
            <path d="M12.6856003,8.93217849 L11.7386959,8.61068519 C12.3520971,6.8070512 11.8871866,4.81153703 10.539817,3.4647924 C8.5875141,1.51233307 5.42183376,1.51233307 3.4695309,3.4647924 C1.51722803,5.41725172 1.51722803,8.58318576 3.4695309,10.5356451 C5.42183376,12.4881044 8.5875141,12.4881044 10.539817,10.5356451 L11.2467456,11.2426304 C8.90398214,13.5860815 5.10536571,13.5860815 2.76260228,11.2426304 C0.419338886,8.89967916 0.419338886,5.10075831 2.76260228,2.75780712 C5.10536571,0.414355941 8.90398214,0.414355941 11.2467456,2.75780712 C12.8635602,4.37383028 13.421523,6.76833786 12.6856003,8.93267847 L12.6856003,8.93217849 Z" id="路径" fill="#9EA4A9"></path>
            <polygon id="路径" fill="#9EA4A9" points="6.42129082 8.16624134 6.42129082 6.99963544 9.92110853 6.99963544 9.92110853 8.16624134"></polygon>
            <polygon id="路径" fill="#9EA4A9" points="7.42129082 8.16624134 6.42129082 8.16624134 6.42129082 3.49981771 7.42129082 3.49981771"></polygon>
        </g>
    </g>
</svg>