<?xml version="1.0" encoding="UTF-8"?>
<svg width="14px" height="14px" viewBox="0 0 14 14" version="1.1" xmlns="http://www.w3.org/2000/svg" xmlns:xlink="http://www.w3.org/1999/xlink">
    <!-- Generator: Sketch 63.1 (92452) - https://sketch.com -->
    <title>icon14*14/地址</title>
    <desc>Created with Sketch.</desc>
    <g id="icon14*14/地址" stroke="none" stroke-width="1" fill="none" fill-rule="evenodd">
        <g id="20px" fill-rule="nonzero">
            <rect id="矩形" fill="#000000" opacity="0" x="0" y="0.0136585366" width="13.9863415" height="13.9863415"></rect>
            <path d="M6.99317073,11.665835 L10.1323274,8.57796162 C10.9573829,7.77335111 11.4226522,6.66972251 11.4226522,5.5172839 C11.4226522,4.36484529 10.9573829,3.2612167 10.1323274,2.45660618 C8.39957507,0.753380593 5.58521235,0.753380593 3.85401409,2.45660618 C3.02895854,3.2612167 2.56368922,4.36484529 2.56368922,5.5172839 C2.56368922,6.66972251 3.02895854,7.77335111 3.85401409,8.57796162 L6.99317073,11.665835 Z M3.03736716,1.62597289 C5.22234451,-0.524038603 8.76399697,-0.524038603 10.9489743,1.62597289 C11.9968356,2.64970134 12.5875896,4.05273789 12.5875896,5.51767241 C12.5875896,6.98260693 11.9968356,8.38564347 10.9489743,9.40937192 L6.99317073,13.3006829 L3.03736716,9.40937192 C1.9895059,8.38564347 1.39875188,6.98260693 1.39875188,5.51767241 C1.39875188,4.05273789 1.9895059,2.64970134 3.03736716,1.62597289 Z M8.53089127,7.14669268 C7.98353795,7.70750093 7.17688193,7.93062045 6.41913991,7.73079909 C5.66139789,7.53097773 5.06966343,6.9390938 4.87003345,6.18130134 C4.67040347,5.42350888 4.89372671,4.61690923 5.45467317,4.06969756 C6.00432541,3.52004532 6.805461,3.30538169 7.55629992,3.50656837 C8.30713884,3.70775505 8.8936108,4.29422701 9.09479748,5.04506593 C9.29598417,5.79590485 9.08132053,6.59704044 8.53166829,7.14669268 L8.53089127,7.14669268 Z M7.81758786,6.43183523 C8.12043347,6.13905726 8.24174004,5.7056541 8.13488365,5.29820335 C8.02802727,4.89075261 7.70963711,4.57266253 7.30208578,4.4661904 C6.89453445,4.35971827 6.46124587,4.48143347 6.16875361,4.78455502 C5.72726139,5.24209123 5.73391879,5.96903922 6.1837165,6.41841299 C6.63351421,6.86778676 7.36046815,6.87375868 7.81758786,6.43183523 L7.81758786,6.43183523 Z" id="形状" fill="#9EA4A9"></path>
        </g>
    </g>
</svg>