<?xml version="1.0" encoding="UTF-8"?>
<svg width="14px" height="14px" viewBox="0 0 14 14" version="1.1" xmlns="http://www.w3.org/2000/svg" xmlns:xlink="http://www.w3.org/1999/xlink">
    <!-- Generator: Sketch 63.1 (92452) - https://sketch.com -->
    <title>icon14*14/电话</title>
    <desc>Created with Sketch.</desc>
    <g id="icon14*14/电话" stroke="none" stroke-width="1" fill="none" fill-rule="evenodd">
        <g id="Combined-Shape-Copy" fill-rule="nonzero">
            <rect id="矩形" fill="#000000" opacity="0" x="0" y="0" width="14" height="14"></rect>
            <path d="M5.30355228,3.34889763 C5.20179903,3.11806479 5.10235835,2.90146834 5.00754282,2.70114204 C4.87861683,2.43014225 4.75894113,2.19371655 4.65314087,2 C4.32186465,2.24761144 3.93219595,2.66453419 3.75123704,2.92638201 C3.56912184,3.19128049 3.50668235,3.29042676 3.40088209,3.50397256 C2.73312637,4.85642928 2.81811346,6.55869436 4.28081647,8.78668887 C5.33245946,10.3882824 6.45810482,11.3105968 7.60514148,11.7336209 C8.33128969,12.0010616 8.90654246,12.0386863 9.57487632,11.9700466 C10.065142,11.9192024 10.6323007,11.8027691 11,11.6548123 C10.7488326,11.3300493 10.4822662,11.0147066 10.2010057,10.7096179 C9.87062518,10.3487167 9.53332657,9.99275616 9.18925462,9.64188895 C7.75488064,10.4686163 6.22453485,10.0049168 5.13878139,8.35044531 C4.0605438,6.70817642 4.32186465,5.29114752 5.80480268,4.53204304 C5.64364356,4.13590825 5.47654553,3.74166158 5.30355228,3.34940607 L5.30355228,3.34889763 Z M3.35910068,9.34088259 C0.843051182,5.40487527 2.52669011,3.06287092 2.86374997,2.55986998 C3.2013633,2.05686905 4.75383115,0.260865707 5.44289442,1.33836771 C6.06000731,2.30486951 6.97488408,4.71337399 7.17025704,5.22837494 C5.54528535,5.59437562 5.18719383,6.48837729 6.09708943,7.91237994 C7.00698502,9.33588258 8.01041611,9.4523828 9.10793616,8.26088058 C9.53742459,8.7008814 11.2520575,10.4283846 11.8697239,11.3948864 C12.5582337,12.4723884 10.332753,12.8783892 9.51362562,12.9648893 C8.6944982,13.0513895 5.87348978,13.2763899 3.35854721,9.34088259 L3.35910068,9.34088259 Z" id="形状" fill="#9EA4A9"></path>
        </g>
    </g>
</svg>